<?xml version="1.0" encoding="utf-8"?>
<!-- Generator: Adobe Illustrator 22.0.0, SVG Export Plug-In . SVG Version: 6.00 Build 0)  -->
<svg version="1.1" id="Layer_1" xmlns="http://www.w3.org/2000/svg" xmlns:xlink="http://www.w3.org/1999/xlink" x="0px" y="0px"
	 viewBox="0 0 43.7 43.7" style="enable-background:new 0 0 43.7 43.7;" xml:space="preserve">
<style type="text/css">
	.st0{fill:none;stroke:#7A9E9F;stroke-miterlimit:10;}
	.st1{fill:#7A9E9F;}
</style>
<g>
	<g>
		<path class="st0" d="M1,42.7h41.7V1C19.7,1,1,19.7,1,42.7z"/>
		<path class="st0" d="M43.2,0.5v42.7H0.5v-0.5c0-23.3,18.9-42.2,42.2-42.2H43.2L43.2,0.5z M42.2,42.2V1.5
			C19.9,1.8,1.8,19.9,1.5,42.2H42.2z"/>
	</g>
</g>
<g>
	<g>
		<g>
			<path class="st1" d="M28.3,18.5c1,0,1.8-0.8,1.8-1.8s-0.8-1.8-1.8-1.8c-1,0-1.8,0.8-1.8,1.8S27.3,18.5,28.3,18.5z"/>
			<path class="st1" d="M18.8,24.4c-2.5,0-4.5,2-4.5,4.5s2,4.5,4.5,4.5s4.5-2,4.5-4.5S21.3,24.4,18.8,24.4z M18.8,32.1
				c-1.8,0-3.2-1.4-3.2-3.2s1.4-3.2,3.2-3.2s3.2,1.4,3.2,3.2C21.9,30.7,20.5,32.1,18.8,32.1z"/>
			<path class="st1" d="M31.4,23.5v-1.8c-1.4,0-2.5-0.5-3.3-1.3l-1.8-1.7c-0.3-0.3-0.7-0.5-1.2-0.5s-1,0.2-1.3,0.5l-2.5,2.5
				c-0.3,0.3-0.5,0.8-0.5,1.3s0.2,1,0.5,1.3l2.9,2.5v4.5H26v-5.7l-2-2l2.1-2.2l0.7,0.7C28,22.8,29.6,23.5,31.4,23.5z"/>
			<path class="st1" d="M31.5,24.4c-2.5,0-4.5,2-4.5,4.5s2,4.5,4.5,4.5s4.5-2,4.5-4.5S34,24.4,31.5,24.4z M31.5,32.1
				c-1.8,0-3.2-1.4-3.2-3.2c0-1.8,1.4-3.2,3.2-3.2c1.8,0,3.2,1.4,3.2,3.2S33.2,32.1,31.5,32.1z"/>
		</g>
	</g>
</g>
</svg>
