<?xml version="1.0" encoding="utf-8"?>
<!-- Generator: Adobe Illustrator 22.0.0, SVG Export Plug-In . SVG Version: 6.00 Build 0)  -->
<svg version="1.1" id="Layer_1" xmlns="http://www.w3.org/2000/svg" xmlns:xlink="http://www.w3.org/1999/xlink" x="0px" y="0px"
	 viewBox="0 0 43.7 43.7" style="enable-background:new 0 0 43.7 43.7;" xml:space="preserve">
<style type="text/css">
	.st0{fill:none;stroke:#A8BAB9;stroke-miterlimit:10;}
	.st1{fill:#A8BAB9;}
</style>
<g>
	<g>
		<path class="st0" d="M1,42.7h41.7V1C19.7,1,1,19.7,1,42.7z"/>
		<path class="st0" d="M43.2,0.5v42.7H0.5v-0.5c0-23.3,18.9-42.2,42.2-42.2H43.2L43.2,0.5z M42.2,42.2V1.5
			C19.9,1.8,1.8,19.9,1.5,42.2H42.2z"/>
	</g>
</g>
<g>
	<g>
		<path class="st1" d="M33.5,21.3c-0.2-0.3-0.7-0.3-0.9-0.1l-1.9,1.6l-0.9-2.1c0-0.1-0.1-0.1-0.1-0.2c-0.2-0.4-0.5-0.7-0.9-0.9
			c-0.2-0.1-0.4-0.1-0.6-0.1c0,0-0.1-0.1-0.1-0.1l-3.3-0.9c-0.2-0.1-0.4,0-0.5,0.1c-0.2,0.1-0.3,0.2-0.4,0.4l-1.2,3.2
			c-0.1,0.3,0,0.7,0.4,0.9c0.3,0.1,0.7,0,0.9-0.4l1-2.7l1.5,0.4c0,0.1-0.1,0.1-0.1,0.2l-1.9,4.2c0,0.1,0,0.1-0.1,0.2L22,28.7
			L18.1,30c-0.4,0.3-0.5,1-0.2,1.4c0.3,0.4,1,0.5,1.4,0.2l4-1.4c0.1-0.1,0.2-0.2,0.3-0.3c0.1-0.1,0.1-0.1,0.1-0.2l1.4-2.3l2.5,2.1
			l-2.6,3c-0.4,0.4-0.3,1,0.1,1.4c0.4,0.4,1,0.3,1.4-0.1l3.3-3.7c0.1-0.1,0.2-0.2,0.2-0.4c0-0.1,0-0.2,0-0.2c0,0,0-0.1,0-0.1
			c0-0.3-0.1-0.5-0.3-0.7l-2.3-1.9c0.2-0.2,0.3-0.3,0.4-0.6l1.5-3.2l0.5,1.3c0,0.1,0.1,0.2,0.1,0.3c0.1,0.1,0.2,0.1,0.3,0.2
			c0,0,0,0,0,0c0.1,0,0.1,0,0.2,0c0.1,0,0.2,0,0.2,0c0,0,0,0,0,0c0,0,0,0,0.1,0c0.1,0,0.2-0.1,0.3-0.2l2.7-2.3
			C33.8,22,33.7,21.6,33.5,21.3z"/>
		<circle class="st1" cx="30.1" cy="17.8" r="1.9"/>
	</g>
</g>
</svg>
