<?xml version="1.0" encoding="utf-8"?>
<!-- Generator: Adobe Illustrator 22.0.0, SVG Export Plug-In . SVG Version: 6.00 Build 0)  -->
<svg version="1.1" id="Layer_1" xmlns="http://www.w3.org/2000/svg" xmlns:xlink="http://www.w3.org/1999/xlink" x="0px" y="0px"
	 viewBox="0 0 43.7 43.7" style="enable-background:new 0 0 43.7 43.7;" xml:space="preserve">
<style type="text/css">
	.st0{fill:none;stroke:#7A9E84;stroke-miterlimit:10;}
	.st1{fill:#7A9E84;}
</style>
<g>
	<g>
		<path class="st0" d="M1,42.7h41.7V1C19.7,1,1,19.7,1,42.7z"/>
		<path class="st0" d="M43.2,0.5v42.7H0.5v-0.5c0-23.3,18.9-42.2,42.2-42.2H43.2L43.2,0.5z M42.2,42.2V1.5
			C19.9,1.8,1.8,19.9,1.5,42.2H42.2z"/>
	</g>
</g>
<g>
	<g>
		<path class="st1" d="M34.2,32.7c-0.5,0-0.9-0.1-1.3-0.3c-0.5-0.2-0.9-0.3-1.4-0.3c-0.5,0-0.9,0.1-1.4,0.3
			c-0.4,0.2-0.9,0.3-1.3,0.3c-0.5,0-0.9-0.1-1.3-0.3c-0.5-0.2-0.9-0.3-1.4-0.3c-0.5,0-0.9,0.1-1.4,0.3c-0.4,0.2-0.9,0.3-1.3,0.3
			s-0.9-0.1-1.3-0.3c-0.4-0.2-0.9-0.3-1.4-0.3s-0.9,0.1-1.4,0.3c-0.4,0.2-0.9,0.3-1.3,0.3s-0.9-0.1-1.3-0.3
			c-0.4-0.2-0.9-0.3-1.4-0.3c-0.5,0-0.9,0.1-1.4,0.3c-0.4,0.2-0.9,0.3-1.4,0.3v-2c0.5,0,0.9-0.1,1.4-0.3c0.4-0.2,0.9-0.3,1.4-0.3
			c0.5,0,0.9,0.1,1.4,0.3c0.4,0.2,0.9,0.3,1.4,0.3s0.9-0.1,1.3-0.3c0.4-0.2,0.9-0.3,1.4-0.3c0.5,0,1,0.1,1.4,0.3
			c0.4,0.2,0.9,0.3,1.4,0.3c0.5,0,0.9-0.1,1.3-0.3c0.4-0.2,0.9-0.3,1.4-0.3c0.4,0,0.9,0.1,1.4,0.3c0.4,0.2,0.8,0.3,1.3,0.3
			c0.5,0,0.9-0.1,1.4-0.3c0.4-0.2,0.9-0.3,1.4-0.3c0.5,0,1,0.1,1.4,0.3c0.4,0.2,0.9,0.3,1.3,0.3V32.7z"/>
		<path class="st1" d="M31,27.1c0.7,0,1.3-0.3,1.8-0.8s0.8-1.1,0.8-1.8c0-0.7-0.3-1.3-0.8-1.8s-1.1-0.8-1.8-0.8
			c-0.7,0-1.3,0.3-1.8,0.8s-0.8,1.1-0.8,1.8c0,0.7,0.2,1.4,0.7,1.8C29.6,26.8,30.3,27.1,31,27.1z"/>
		<path class="st1" d="M15.9,28.5c0.2,0,0.4,0.1,0.6,0.2c0.4,0.2,0.9,0.3,1.4,0.3s0.9-0.1,1.3-0.3c0.5-0.2,0.9-0.3,1.4-0.3
			s0.9,0.1,1.4,0.3c0.4,0.2,0.9,0.3,1.4,0.3c0.5,0,0.9-0.1,1.3-0.3c0.5-0.2,0.9-0.3,1.4-0.3s0.9,0.1,1.4,0.3
			c0.4,0.2,0.9,0.3,1.3,0.3c0.3,0,0.6-0.1,1-0.2l-4.3-7.7l5-0.9c0.4-0.1,0.7-0.2,0.9-0.5c0.2-0.3,0.4-0.6,0.4-1c0-0.4-0.1-0.7-0.4-1
			c-0.3-0.3-0.6-0.4-1-0.4c-0.1,0-0.1,0-0.2,0l-7.7,1.4c-0.3,0.1-0.6,0.3-0.8,0.7s-0.2,0.8-0.1,1.2l0,0.1l0,0.1l2,3.6L15.9,28.5z"/>
	</g>
</g>
</svg>
