<?xml version="1.0" encoding="utf-8"?>
<!-- Generator: Adobe Illustrator 22.0.0, SVG Export Plug-In . SVG Version: 6.00 Build 0)  -->
<svg version="1.1" id="Capa_1" xmlns="http://www.w3.org/2000/svg" xmlns:xlink="http://www.w3.org/1999/xlink" x="0px" y="0px"
	 viewBox="0 0 18.5 18.5" style="enable-background:new 0 0 18.5 18.5;" xml:space="preserve">
<style type="text/css">
	.st0{fill:#A8BAB9;}
</style>
<g>
	<g>
		<path class="st0" d="M17.1,5.5c-0.2-0.3-0.7-0.3-1-0.1L14.3,7l-0.9-2.2c0-0.1-0.1-0.1-0.1-0.2c-0.2-0.4-0.5-0.7-0.9-0.9
			c-0.2-0.1-0.4-0.1-0.6-0.2c0,0-0.1-0.1-0.1-0.1L8.3,2.5c-0.2-0.1-0.4,0-0.5,0.1C7.6,2.6,7.4,2.8,7.4,3L6.1,6.2
			C6,6.6,6.1,6.9,6.5,7.1c0.3,0.1,0.7,0,0.9-0.4L8.4,4L10,4.4c0,0.1-0.1,0.1-0.1,0.2L7.9,8.8c0,0.1,0,0.1-0.1,0.2l-2.4,4l-4,1.3
			c-0.4,0.3-0.5,1-0.2,1.4c0.3,0.4,1,0.5,1.4,0.2l4.1-1.4c0.1-0.1,0.2-0.2,0.3-0.3c0.1-0.1,0.1-0.1,0.1-0.2l1.4-2.4l2.5,2.1l-2.7,3
			c-0.4,0.4-0.3,1.1,0.1,1.4c0.4,0.4,1.1,0.3,1.4-0.1l3.3-3.8c0.1-0.1,0.2-0.2,0.2-0.4c0-0.1,0-0.2,0-0.2c0,0,0-0.1,0-0.1
			c0-0.3-0.1-0.5-0.3-0.7l-2.3-2c0.2-0.2,0.3-0.3,0.4-0.6l1.5-3.2l0.5,1.3c0,0.1,0.1,0.2,0.1,0.3c0.1,0.1,0.2,0.1,0.3,0.2
			c0,0,0,0,0,0c0.1,0,0.1,0,0.2,0c0.1,0,0.2,0,0.2,0c0,0,0,0,0,0c0,0,0,0,0.1,0c0.1,0,0.2-0.1,0.3-0.2l2.7-2.3
			C17.5,6.2,17.4,5.7,17.1,5.5z"/>
		<circle class="st0" cx="13.7" cy="1.9" r="1.9"/>
	</g>
</g>
</svg>
